<svg width="94" height="155" viewBox="0 0 94 155" fill="none" xmlns="http://www.w3.org/2000/svg">
<g>
<path d="M9.07812 14.8749C4.65624 8.41659 5.52604 6.35929 5.63541 6.14054C5.91666 5.60929 7.10416 5.27596 8.73958 5.27596H84.8229C86.4531 5.27596 87.6406 5.60929 87.9219 6.14054C88.0365 6.35929 88.8958 8.41658 84.4479 14.927L53.8958 61.8176C53.1094 63.0208 53.4479 64.6353 54.6615 65.4322C55.8698 66.2135 57.4896 65.8749 58.276 64.6614L88.7917 17.828C93.0521 11.6093 94.276 6.98429 92.5417 3.70304C91.6614 2.04158 89.6094 0.052002 84.8177 0.052002H8.73958C3.94791 0.052002 1.89583 2.04158 1.01562 3.70304C-0.718755 6.97909 0.51041 11.6093 4.72916 17.7812L84.474 140.135C88.8958 146.604 88.0312 148.667 87.9219 148.88C87.6406 149.411 86.4479 149.745 84.8177 149.745H8.73958C7.10416 149.745 5.91666 149.411 5.63541 148.88C5.52604 148.667 4.65625 146.604 9.10937 140.083L41.5833 90.2603C42.3698 89.0624 42.026 87.4478 40.8177 86.6458C39.6094 85.8801 37.9896 86.2135 37.2031 87.4218L4.76041 137.198C0.510411 143.411 -0.718755 148.036 1.01562 151.323C1.89583 152.984 3.94791 154.963 8.73958 154.963H84.8177C89.6094 154.963 91.6614 152.99 92.5417 151.323C94.276 148.036 93.0469 143.411 88.8281 137.24L9.07812 14.8749Z" fill="white"/>
<path d="M63.4635 32.4531C61.8333 32.4531 56.5885 30.7552 48.3646 34.3438C40.1354 37.9271 31.7239 32.4531 30.0885 32.4531C28.4583 32.4531 30.7916 36.4323 33.7083 40.8542C36.625 45.2865 45.4948 60.5625 46.7812 60.5625C48.0625 60.5625 56.9271 45.2813 59.8489 40.8542C62.7656 36.4323 65.0989 32.4531 63.4635 32.4531Z" fill="white" opacity="0.4" />
<path d="M26.4896 125.24C26.349 125.458 26.1979 125.672 26.0573 125.906L19.7396 135.594C15.7188 141.458 16.1042 144.87 20.974 144.87H72.5885C77.4583 144.87 77.8229 141.458 73.8177 135.594L68.0833 126.797C65.7656 123.229 64.2552 119.156 60.125 121.521C55.9844 123.896 56.5313 114.109 46.776 109.385C37.7969 105.047 28.3125 122.651 26.4896 125.24Z" opacity="0.4" fill="white"/>
</g>
</svg>
