<svg viewBox="0 0 167 165" fill="none" xmlns="http://www.w3.org/2000/svg">
<path d="M83.1857 162.965C82.5202 162.965 81.8677 162.965 81.2021 162.965C37.562 161.907 2 125.68 2 82.1703C2 78.4379 2.23491 74.7317 2.74387 71.0384C3.25283 67.3452 4.00974 63.7042 5.01461 60.1284C6.03254 56.5396 7.28536 53.0291 8.78614 49.6229C10.2869 46.2038 12.0096 42.9151 13.9671 39.7439C15.9246 36.5596 18.104 33.545 20.4792 30.6609C22.8543 27.7898 25.4252 25.0884 28.1788 22.5697C30.9325 20.051 33.8557 17.7411 36.9356 15.627C40.0154 13.5128 43.2258 11.6075 46.5667 9.93705C46.8799 9.78045 47.1148 9.85875 47.2714 10.172C47.4149 10.4852 47.3366 10.707 47.0365 10.8636C43.7348 12.521 40.5636 14.3872 37.5228 16.4752C34.4821 18.5633 31.6111 20.8601 28.8836 23.3397C26.1691 25.8323 23.6374 28.4945 21.2883 31.3265C18.9393 34.1714 16.799 37.1469 14.8676 40.2789C12.9231 43.4241 11.2265 46.6736 9.73881 50.0405C8.26413 53.4075 7.02435 56.8658 6.03253 60.4025C5.02766 63.9521 4.2838 67.541 3.78789 71.182C3.29198 74.823 3.04402 78.4901 3.05707 82.1703C3.05707 125.119 38.1493 160.876 81.2282 161.894C83.8905 161.96 86.5527 161.881 89.215 161.686C91.8642 161.49 94.5003 161.151 97.1234 160.694C99.7465 160.224 102.344 159.637 104.914 158.919C107.472 158.188 109.991 157.353 112.471 156.374C114.95 155.408 117.377 154.312 119.74 153.099C122.115 151.885 124.412 150.567 126.656 149.118C128.888 147.683 131.054 146.13 133.129 144.485C135.217 142.828 137.214 141.066 139.119 139.213C141.025 137.36 142.825 135.415 144.535 133.38C146.258 131.357 147.863 129.243 149.364 127.05C150.851 124.858 152.248 122.587 153.514 120.264C154.793 117.928 155.941 115.54 156.985 113.099C158.016 110.646 158.93 108.166 159.713 105.622C160.496 103.09 161.148 100.519 161.683 97.922C162.205 95.325 162.597 92.7019 162.871 90.0657C163.132 87.4165 163.262 84.7673 163.262 82.1181C163.262 65.2702 155.406 48.6181 155.315 48.4615C151.06 39.2741 145.305 31.1307 138.049 24.0313C123.107 9.53249 103.218 1.23252 88.5364 3.39887C86.0177 3.75123 83.5903 4.44289 81.2543 5.48691C73.0196 9.24539 69.1959 16.4361 65.8419 22.7785L65.607 23.2222C62.3053 29.4864 60.2042 36.1159 59.3037 43.1239C58.599 48.5528 57.542 56.7745 60.3347 64.0043C63.8974 73.257 72.1452 76.9372 80.8889 80.8261L81.5414 81.1132C90.3242 77.3026 98.6112 73.7137 102.839 65.0614C105.332 59.9587 105.932 53.786 104.64 46.7258C104.471 45.8253 104.04 45.0684 103.335 44.4942C102.618 43.9069 101.808 43.6068 100.882 43.6198H70.4226C70.0702 43.6198 69.9006 43.4371 69.9006 43.0847C69.9006 42.7454 70.0702 42.5627 70.4226 42.5627H100.882C102.056 42.5627 103.1 42.9412 104.001 43.6851C104.901 44.4289 105.463 45.3816 105.671 46.53C107.002 53.8251 106.376 60.2198 103.792 65.5182C99.5377 74.2488 91.1073 78.1247 82.8073 81.7266C90.6375 85.2241 98.4154 89.2305 102.735 97.7784C105.306 102.907 106.233 108.949 105.436 115.683C105.306 116.819 104.81 117.771 103.962 118.541C103.1 119.298 102.083 119.677 100.934 119.677H61.2352C60.0476 119.69 59.0166 119.298 58.1292 118.515C57.2549 117.732 56.7459 116.767 56.6023 115.592C55.8063 108.871 56.7328 102.868 59.3559 97.7784C63.793 89.1653 72.0278 85.2241 80.2103 81.6874C71.7276 77.8637 63.01 73.8964 59.3298 64.3436C56.4457 56.8528 57.5289 48.4876 58.2467 42.9542C59.1602 35.8157 61.3004 29.0688 64.6544 22.7133L64.9023 22.2696C68.1779 16.1098 72.2627 8.42322 80.8236 4.52119C83.2379 3.43802 85.7566 2.7072 88.3798 2.3418C103.361 0.1624 123.615 8.55373 138.78 23.2744C146.14 30.4651 151.974 38.726 156.306 48.0438C156.372 48.2135 164.345 65.0614 164.345 82.1442C164.345 84.7934 164.215 87.4296 163.954 90.0657C163.693 92.7019 163.301 95.325 162.779 97.9089C162.257 100.506 161.618 103.077 160.848 105.609C160.065 108.14 159.177 110.633 158.16 113.073C157.142 115.527 156.006 117.915 154.753 120.251C153.501 122.574 152.13 124.845 150.656 127.05C149.181 129.256 147.589 131.37 145.905 133.419C144.222 135.468 142.434 137.425 140.555 139.291C138.675 141.171 136.718 142.945 134.656 144.616C132.607 146.299 130.467 147.878 128.261 149.34C126.056 150.815 123.772 152.172 121.436 153.425C119.087 154.665 116.686 155.8 114.232 156.805C111.779 157.823 109.273 158.71 106.728 159.48C104.197 160.25 101.613 160.89 99.0157 161.412C96.4057 161.921 93.7826 162.312 91.1334 162.573C88.4842 162.834 85.8349 162.965 83.1857 162.965ZM81.5153 82.2225C73.2023 85.8113 64.6935 89.622 60.2825 98.2091C57.7638 103.09 56.8764 108.91 57.6464 115.435C57.7508 116.336 58.1553 117.08 58.8339 117.68C59.5256 118.28 60.3217 118.581 61.2352 118.568H100.934C101.822 118.568 102.591 118.267 103.244 117.693C103.91 117.106 104.288 116.375 104.392 115.501C105.149 108.949 104.262 103.129 101.782 98.183C97.4758 89.6351 89.4499 85.7591 81.5153 82.2225Z" fill="white" stroke="white" stroke-width="4" stroke-linejoin="round"/>
</svg>
